# xmcd
#
# Track frame offsets: 
#        150
#        16656
#        26494
#        42652
#        56288
#        76010
#        97412
#        112968
#        127551
#        143328
#        158532
#
# Disc length: 2384 seconds
#
# Revision: 0
# Processed by: cddbd v1.5.2PL0 Copyright (c) Steve Scherf et al.
# Submitted via: ExactAudioCopy v1.3
#
DISCID=72094e0b
DTITLE=The Irish Dogs - The Irish Dogs
DYEAR=2015
DGENRE=Celtic
TTITLE0=The miller's maggot
TTITLE1=Irish fiddle
TTITLE2=Whiskey in the jar
TTITLE3=Forest run run
TTITLE4=Freedom
TTITLE5=Jimmy
TTITLE6=The irish dogs
TTITLE7=Jungle reels
TTITLE8=Johnny
TTITLE9=Medley jig
TTITLE10=Dirty old town
EXTD=
EXTT0=
EXTT1=
EXTT2=
EXTT3=
EXTT4=
EXTT5=
EXTT6=
EXTT7=
EXTT8=
EXTT9=
EXTT10=
PLAYORDER=
